<?xml version="1.0"?>
<svg version="1.1" xmlns="http://www.w3.org/2000/svg" width="560" height="906">
<path d="M0 0 C3 0 3 0 4.61328125 1.50390625 C5.45439453 2.52291016 5.45439453 2.52291016 6.3125 3.5625 C6.92351562 4.29082031 7.53453125 5.01914063 8.1640625 5.76953125 C8.76992188 6.50558594 9.37578125 7.24164063 10 8 C11.05936329 9.25265944 12.12162721 10.50287473 13.1875 11.75 C13.66832031 12.31589844 14.14914062 12.88179687 14.64453125 13.46484375 C15.82689938 14.80395233 17.09509963 16.06628122 18.375 17.3125 C20 19 20 19 20 21 C21.485 21.495 21.485 21.495 23 22 C24.60812665 23.73226275 26.14197316 25.5345009 27.625 27.375 C28.42164063 28.35210938 29.21828125 29.32921875 30.0390625 30.3359375 C32 33 32 33 33 36 C33.66 36 34.32 36 35 36 C36.3671875 37.828125 36.3671875 37.828125 37.875 40.25 C39.97516357 43.61465996 42.18805291 46.21478245 45 49 C49.49800737 54.73671643 53.46481274 60.63666294 57 67 C57.99040536 68.48560804 58.99113925 69.96436253 60 71.4375 C62.26286183 74.79784982 64.20982376 78.14725254 65.9453125 81.8046875 C66.71695545 83.41084802 67.53038192 84.99711801 68.3671875 86.5703125 C72.13337347 93.73192001 74.89471925 100.99268915 77.4921875 108.62890625 C78.70080371 112.17833 80.00354931 115.68141615 81.3515625 119.17993164 C83.89579968 125.78386545 86.06240281 132.38120945 87.9296875 139.21484375 C89.45328974 144.60305749 91.17078594 149.92607895 92.89453125 155.25317383 C94.45971647 160.13247311 95.81694773 165.01511143 97 170 C97.18949219 170.78133301 97.37898437 171.56266602 97.57421875 172.36767578 C99.07738481 178.57184916 100.54389754 184.78463331 102 191 C102.29261719 192.24652344 102.58523438 193.49304688 102.88671875 194.77734375 C104.42553736 201.62467945 105.61807978 208.50390333 106.6875 215.4375 C106.88496826 216.69929077 106.88496826 216.69929077 107.08642578 217.98657227 C108.48915913 227.44794265 108.48915913 227.44794265 108 232 C105.37017014 234.89033187 102.17779194 235.75782126 98.5 236.875 C93.14666851 238.58129301 88.01275665 240.58697103 82.84765625 242.79296875 C80.35167525 243.85093601 77.84276837 244.84063719 75.3125 245.8125 C64.5386696 250.1011121 54.04422457 255.21527067 44 261 C42.12712644 262.02472939 40.25200845 263.04536434 38.375 264.0625 C35.2117976 265.77700886 32.08898007 267.53073553 29 269.375 C26 271 26 271 23 271 C23 271.66 23 272.32 23 273 C21.05859375 274.3671875 21.05859375 274.3671875 18.4375 275.875 C17.05691406 276.67744141 17.05691406 276.67744141 15.6484375 277.49609375 C13.62185986 278.64687899 11.59273767 279.79318422 9.5625 280.9375 C-3.40383638 288.30815525 -15.9293245 296.89976324 -27.94921875 305.72265625 C-29.99441088 306.99651878 -31.64396938 307.56921336 -34 308 C-34 308.66 -34 309.32 -34 310 C-35.6796875 311.2890625 -35.6796875 311.2890625 -37.875 312.625 C-38.59429687 313.07101562 -39.31359375 313.51703125 -40.0546875 313.9765625 C-42 315 -42 315 -44 315 C-44 315.66 -44 316.32 -44 317 C-45.49609375 318.21875 -45.49609375 318.21875 -47.4375 319.5 C-50.22531847 321.2865363 -50.22531847 321.2865363 -52 324 C-51.44779785 324.10707275 -50.8955957 324.21414551 -50.32666016 324.32446289 C-47.53563093 325.13482783 -45.30184477 326.37326801 -42.7734375 327.80859375 C-41.75064697 328.38577148 -40.72785645 328.96294922 -39.67407227 329.55761719 C-38.58537842 330.17797852 -37.49668457 330.79833984 -36.375 331.4375 C-34.10040258 332.72290785 -31.8256622 334.00806275 -29.55078125 335.29296875 C-28.43268066 335.92638184 -27.31458008 336.55979492 -26.16259766 337.21240234 C-21.97436499 339.57972052 -17.77091111 341.91880048 -13.5625 344.25 C-12.1315041 345.04425945 -10.70051446 345.83853018 -9.26953125 346.6328125 C-6.30924121 348.27460808 -3.34806821 349.91480377 -0.38671875 351.5546875 C1.15895056 352.41128442 2.7045242 353.268054 4.25 354.125 C4.99612549 354.53862793 5.74225098 354.95225586 6.51098633 355.37841797 C11.2385737 358.00502905 15.93874447 360.67546178 20.625 363.375 C25.3476598 366.08778365 30.09049338 368.64343682 35 371 C35 371.66 35 372.32 35 373 C35.66 373.0825 36.32 373.165 37 373.25 C40.99039163 374.24759791 44.38549643 376.07166683 48 378 C48 378.66 48 379.32 48 380 C48.69996094 380.08894531 49.39992188 380.17789062 50.12109375 380.26953125 C53.63072772 381.16003539 56.02913841 382.7141235 59.0625 384.6875 C63.24038708 387.35245861 67.40265181 389.78302645 71.875 391.9375 C77.26174679 394.54559508 82.31013394 397.54605388 87.40673828 400.66796875 C92.34356038 403.66755686 97.39842755 406.30990174 102.609375 408.80859375 C105 410 105 410 108 412 C109.22490853 422.02091838 107.53603336 432.4677445 106.125 442.375 C105.77238544 444.94516838 105.42082914 447.51548217 105.0703125 450.0859375 C104.89218018 451.38015625 104.71404785 452.674375 104.53051758 454.0078125 C103.88353692 458.79901827 103.32880411 463.600123 102.77320862 468.40261841 C101.7721811 477.02718346 100.66893049 485.63842124 99.5625 494.25 C99.45328217 495.10207031 99.34406433 495.95414062 99.23153687 496.83203125 C97.68348445 508.89652443 96.05552112 520.9450787 94.29101562 532.97998047 C93.85534435 536.00409464 93.45869278 539.03299145 93.0625 542.0625 C90.66248492 560.13203499 88.17925904 578.14224917 84.59033203 596.01855469 C83.90489736 599.48031161 83.24650168 602.94673291 82.58984375 606.4140625 C75.00384274 646.40688412 75.00384274 646.40688412 70.08984375 661.484375 C68.9200375 665.25794353 67.90002838 669.05527545 66.88793945 672.87353516 C64.24862368 682.82438907 61.2203651 692.4995202 57.6640625 702.15722656 C56.36229597 705.76962869 55.21240738 709.43314998 54.0546875 713.09375 C52.88570855 716.31493645 51.50568899 719.39727719 50.09716797 722.51953125 C48.16601467 726.8854675 46.41075208 731.32311286 44.625 735.75 C41.2951735 743.94822952 37.79301947 752.00480152 34 760 C33.09999556 761.9564199 32.20402561 763.91470184 31.3125 765.875 C30.93738281 766.69742188 30.56226563 767.51984375 30.17578125 768.3671875 C29.2793383 770.37450493 28.405886 772.39210626 27.54296875 774.4140625 C19.86337779 792.26182073 11.28180218 809.8653006 2.37329102 827.12866211 C0.88577598 830.04597484 -0.40592504 832.76469986 -1 836 C-1.66 836 -2.32 836 -3 836 C-3.26425781 836.68964844 -3.52851563 837.37929688 -3.80078125 838.08984375 C-7.53058341 847.14099231 -12.31413333 855.72268627 -17.30859375 864.125 C-19.49413377 867.83991329 -21.54730693 871.61945737 -23.59765625 875.41015625 C-25.30363188 878.56074635 -27.04155587 881.69260955 -28.7890625 884.8203125 C-29.6052133 886.28938393 -30.41234272 887.7634991 -31.2109375 889.2421875 C-37.23261209 900.32667131 -37.23261209 900.32667131 -41 905 C-41.66 905 -42.32 905 -43 905 C-41.76901167 898.96815717 -39.6429777 893.44989928 -37.31396484 887.77319336 C-35.72854186 883.88645833 -34.28616652 879.99900515 -33 876 C-31.52166954 871.41717558 -29.8181263 866.95674326 -28 862.5 C-25.83350435 857.17567485 -23.87759832 851.82766054 -22.10546875 846.359375 C-20.75007895 842.24052259 -19.31470833 838.15249694 -17.875 834.0625 C-9.82567217 811.14653375 -1.80641791 788.21667538 5.375 765.01171875 C5.99485122 763.01657263 6.62124812 761.02360753 7.25 759.03125 C10.29012524 749.38954032 13.20576285 739.71588122 16 730 C16.21156738 729.26491211 16.42313477 728.52982422 16.64111328 727.77246094 C19.22311692 718.75600245 21.62948226 709.72737192 23.65649414 700.56835938 C24.28479222 697.77774562 24.94728261 695.12948835 26.02734375 692.4765625 C27.29035409 689.26070484 27.7933376 686.09193582 28.375 682.6875 C29.34009348 677.2465837 30.47812945 671.91341542 31.875 666.5625 C34.75311978 655.48461275 36.84306271 644.23596057 39 633 C39.14824219 632.24138672 39.29648437 631.48277344 39.44921875 630.70117188 C42.09234725 617.10607035 43.73812693 603.36149871 45.52246094 589.63330078 C46.07741591 585.41099 46.65884852 581.19277146 47.24609375 576.97485352 C48.55786826 567.54140292 49.71848142 558.10410558 50.71875 548.6328125 C51.04405148 545.58762925 51.38132405 542.54386329 51.71875 539.5 C53.29315803 525.19730715 54.65174072 510.89504741 55.7824707 496.55078125 C55.98356665 494.19269993 56.22991553 491.84455549 56.48828125 489.4921875 C57.76084787 476.98516696 58.13295583 464.36902917 58.6552124 451.81321716 C58.86040669 446.92126993 59.11217234 442.03673892 59.42411804 437.15048218 C59.62388995 433.78956835 59.74359014 430.42676289 59.875 427.0625 C59.96789307 425.86334961 60.06078613 424.66419922 60.15649414 423.42871094 C60.28942496 418.16449893 60.17601198 415.24395028 56.46435547 411.31787109 C53.40040389 408.9812951 50.31865293 406.95443812 47 405 C45.48768799 404.0565271 45.48768799 404.0565271 43.94482422 403.09399414 C41.01824869 401.27871658 38.08064245 399.54032123 35 398 C35 397.34 35 396.68 35 396 C34.195625 395.79375 33.39125 395.5875 32.5625 395.375 C29.54235284 394.20932917 27.55385039 393.11966726 24.94140625 391.30859375 C19.87813366 387.8764598 14.6555467 384.77134671 9.375 381.6875 C7.43588993 380.55000404 5.49708909 379.41198076 3.55859375 378.2734375 C2.61612793 377.72010742 1.67366211 377.16677734 0.70263672 376.59667969 C-1.73769356 375.15496695 -4.16699276 373.697406 -6.58984375 372.2265625 C-7.26901855 371.81446533 -7.94819336 371.40236816 -8.64794922 370.9777832 C-9.88189631 370.22674654 -11.1141327 369.47288836 -12.34423828 368.71557617 C-15.47531117 366.81288978 -18.55472473 365.25107761 -22 364 C-22 363.34 -22 362.68 -22 362 C-22.66128906 361.93039062 -23.32257813 361.86078125 -24.00390625 361.7890625 C-28.12500988 360.70371317 -31.33204962 358.60168063 -34.9375 356.375 C-41.35590157 352.50246795 -47.80685846 348.99240461 -54.546875 345.70703125 C-58.20049996 343.90088407 -61.7890982 341.99826057 -65.375 340.0625 C-71.42220418 336.79896739 -77.53835722 333.69834565 -83.72216797 330.70141602 C-87.06959191 329.05843785 -90.1155369 327.37329242 -93 325 C-91.8512638 321.55379139 -90.92418358 320.90830804 -88.0625 318.8125 C-87.35222656 318.28269531 -86.64195312 317.75289063 -85.91015625 317.20703125 C-84 316 -84 316 -82 316 C-82 315.34 -82 314.68 -82 314 C-81.01 314 -80.02 314 -79 314 C-79 313.34 -79 312.68 -79 312 C-77.50976562 310.77001953 -77.50976562 310.77001953 -75.40625 309.3828125 C-74.63015381 308.86356201 -73.85405762 308.34431152 -73.05444336 307.80932617 C-72.21147705 307.25349854 -71.36851074 306.6976709 -70.5 306.125 C-63.11207541 301.18040302 -55.92541818 296.05888083 -48.90234375 290.60791016 C-44.20435291 287 -44.20435291 287 -42 287 C-42 286.34 -42 285.68 -42 285 C-35.375 281.125 -35.375 281.125 -32 280 C-32 279.34 -32 278.68 -32 278 C-30.3203125 276.7109375 -30.3203125 276.7109375 -28.125 275.375 C-27.40570313 274.92898438 -26.68640625 274.48296875 -25.9453125 274.0234375 C-24 273 -24 273 -22 273 C-22 272.34 -22 271.68 -22 271 C-20.2421875 269.6328125 -20.2421875 269.6328125 -17.875 268.125 C-17.05644531 267.5990625 -16.23789062 267.073125 -15.39453125 266.53125 C-14.60433594 266.0259375 -13.81414062 265.520625 -13 265 C-11.8524102 264.21088164 -10.70625401 263.4196678 -9.5625 262.625 C-7 261 -7 261 -5 261 C-5 260.34 -5 259.68 -5 259 C0.41176471 255 0.41176471 255 3 255 C3 254.34 3 253.68 3 253 C4.6796875 251.7109375 4.6796875 251.7109375 6.875 250.375 C7.59429687 249.92898437 8.31359375 249.48296875 9.0546875 249.0234375 C11 248 11 248 13 248 C13 247.34 13 246.68 13 246 C17.38461538 243 17.38461538 243 20 243 C20 242.34 20 241.68 20 241 C20.99 241 21.98 241 23 241 C23 240.34 23 239.68 23 239 C24.42578125 237.7109375 24.42578125 237.7109375 26.3125 236.375 C26.92738281 235.92898437 27.54226563 235.48296875 28.17578125 235.0234375 C30 234 30 234 33 234 C33.33 233.01 33.66 232.02 34 231 C35.95538008 229.60204917 37.96563484 228.28028754 40 227 C41.17512177 226.18414483 42.34429605 225.35966598 43.5078125 224.52734375 C44.10207031 224.10259766 44.69632813 223.67785156 45.30859375 223.24023438 C45.90800781 222.81033203 46.50742187 222.38042969 47.125 221.9375 C48.03572266 221.2868457 48.03572266 221.2868457 48.96484375 220.62304688 C51.44330779 218.84924418 53.9067004 217.07321647 56.3046875 215.19140625 C58 214 58 214 60 214 C60 213.34 60 212.68 60 212 C60.99 212 61.98 212 63 212 C63 211.34 63 210.68 63 210 C65.475 209.01 65.475 209.01 68 208 C67.49284718 203.4499597 66.97766998 198.90091612 66.45581055 194.35253906 C66.28023081 192.813061 66.10664845 191.2733535 65.93530273 189.73339844 C64.349464 175.50270483 62.01215096 161.54776585 58.625 147.625 C58.41294922 146.74634277 58.20089844 145.86768555 57.98242188 144.96240234 C51.07024158 116.64591152 42.71579816 86.21074289 29.1484375 60.32421875 C27.55712023 57.1036957 26.16665836 53.79978695 24.75 50.5 C18.71420303 36.53629645 11.62527469 23.10810949 4.23046875 9.8203125 C3.68003906 8.82773438 3.12960937 7.83515625 2.5625 6.8125 C1.82193359 5.49185547 1.82193359 5.49185547 1.06640625 4.14453125 C0 2 0 2 0 0 Z " fill="#E50101" transform="translate(452,0)"></path>
<path d="M0 0 C0.495 0.99 0.495 0.99 1 2 C-0.08528981 4.69513637 -1.23369815 7.26590638 -2.5 9.875 C-2.86730225 10.64440918 -3.23460449 11.41381836 -3.61303711 12.20654297 C-6.24310225 17.63895074 -9.17681332 22.81866435 -12.28515625 27.9921875 C-15.59417624 33.79616334 -18.28365281 39.9024759 -21 46 C-21.29938477 46.67144043 -21.59876953 47.34288086 -21.90722656 48.03466797 C-27.16575668 59.87057881 -32.21212208 71.77639035 -36.7890625 83.89453125 C-37.65382095 86.11221823 -38.56699716 88.31127251 -39.51171875 90.49609375 C-47.19446599 108.5838215 -53.14624902 128.72824245 -56.4296875 148.08203125 C-57 151 -57 151 -57.95727539 153.76586914 C-59.02174706 157.06745102 -59.67618468 160.24509126 -60.25390625 163.6640625 C-60.57790405 165.58037476 -60.57790405 165.58037476 -60.90844727 167.53540039 C-61.69623424 172.39060159 -62.41575261 177.25589544 -63.1108551 182.12516785 C-63.68831606 186.11954872 -64.4073244 190.05015583 -65.25 193.99609375 C-66.12786544 198.8299955 -66.92060084 203.34163806 -65 208 C-60.37240443 213.54034703 -53.915757 216.94643945 -47.70507812 220.43701172 C-43.74059972 222.72767875 -40.07506907 225.37302248 -36.375 228.0625 C-34.98667731 229.04568474 -33.59735041 230.02745299 -32.20703125 231.0078125 C-23.18324597 237.41206151 -14.23293089 243.91986261 -5.28515625 250.4296875 C-3.73202936 251.55764772 -2.1786476 252.68525711 -0.625 253.8125 C0.11983643 254.35358398 0.86467285 254.89466797 1.63208008 255.45214844 C6.98288079 259.31876374 12.42818693 262.98098008 18.0078125 266.51171875 C18.66523437 267.00285156 19.32265625 267.49398438 20 268 C20 268.66 20 269.32 20 270 C20.721875 270.268125 21.44375 270.53625 22.1875 270.8125 C24.99766383 271.99901362 27.48416557 273.27485639 30 275 C30 275.66 30 276.32 30 277 C30.71671875 277.25007813 31.4334375 277.50015625 32.171875 277.7578125 C35.28206883 279.12389211 37.57228312 280.78638084 40.25 282.875 C45.14960356 286.63898003 50.13159427 290.26129374 55.1875 293.8125 C56.26366577 294.56901855 56.26366577 294.56901855 57.36157227 295.34082031 C58.83444328 296.37534269 60.30767205 297.40935592 61.78125 298.44287109 C66.12662154 301.49247273 70.46594187 304.55073224 74.79736328 307.62011719 C78.24240736 310.0609281 81.69709847 312.48408626 85.1796875 314.87109375 C86.16255737 315.55244385 86.16255737 315.55244385 87.1652832 316.24755859 C88.40043727 317.10363115 89.64094317 317.95204956 90.88745117 318.79150391 C92.53515625 319.94140625 92.53515625 319.94140625 95 322 C95 322.99 95 323.98 95 325 C94.01 325 93.02 325 92 325 C92 325.66 92 326.32 92 327 C86.57630148 329.97683245 81.14170492 332.93020353 75.67431641 335.82617188 C69.75125527 338.96401176 63.88617159 342.18124058 58.0625 345.5 C52.13979989 348.86950213 46.1272119 351.97439318 40.01123047 354.97607422 C33.12012382 358.3836158 26.46408471 362.17842482 19.78955078 365.98779297 C17.25328259 367.42235885 14.6902818 368.80563934 12.125 370.1875 C7.84434554 372.50672025 3.67912502 374.97930353 -0.48046875 377.5078125 C-3.05768928 379.03416636 -5.67205379 380.4611576 -8.3125 381.875 C-15.84942772 385.94322803 -23.20296782 390.38982459 -30.26171875 395.2421875 C-33 397 -33 397 -35 397 C-35.33 397.66 -35.66 398.32 -36 399 C-37.57261308 400.18876945 -39.18294656 401.32806757 -40.8125 402.4375 C-44.56376827 405.000716 -44.56376827 405.000716 -48.19921875 407.72265625 C-50 409 -50 409 -52 409 C-52 409.66 -52 410.32 -52 411 C-52.99 411 -53.98 411 -55 411 C-55 411.66 -55 412.32 -55 413 C-55.99 413.66 -56.98 414.32 -58 415 C-58.16347822 417.6435482 -58.13507023 420.02457703 -57.9609375 422.65234375 C-57.90042206 423.83632248 -57.90042206 423.83632248 -57.83868408 425.04421997 C-57.69966582 427.67642025 -57.53775129 430.30666801 -57.375 432.9375 C-57.27038063 434.79674091 -57.16671828 436.65603589 -57.06396484 438.51538086 C-56.73475649 444.34524443 -56.37056445 450.17263899 -56 456 C-55.94352295 456.89996704 -55.8870459 457.79993408 -55.82885742 458.72717285 C-54.5083733 479.73408385 -52.9087448 500.71982043 -51.19671631 521.69821167 C-51.02624445 523.78740515 -50.85697969 525.87669755 -50.68902588 527.96609497 C-49.9016993 537.71185456 -49.07576091 547.37951623 -47.4621582 557.02978516 C-46.59942112 562.57445468 -46.15092664 568.16523287 -45.625 573.75 C-44.37774501 586.41449815 -42.54676111 598.90871463 -40.42138672 611.45166016 C-39.8894175 614.66874863 -39.43625103 617.89365387 -39 621.125 C-38.1185117 627.43708588 -37.07162376 633.71789905 -36 640 C-35.83371094 640.99273926 -35.66742188 641.98547852 -35.49609375 643.00830078 C-34.65713222 647.85627629 -33.59966939 652.34009351 -32 657 C-31.3173549 660.00585244 -30.75761269 663.03357229 -30.1875 666.0625 C-27.05276773 682.16653551 -23.11890491 698.02883813 -18.62060547 713.80273438 C-17.99545669 716.01608566 -17.38763866 718.23350408 -16.78515625 720.453125 C-14.43497626 729.0905306 -11.89577278 737.6425828 -9.16259766 746.16674805 C-7.66779402 750.83981881 -6.25747592 755.52363461 -4.9375 760.25 C-2.87529005 767.58703624 -0.44974281 774.78480006 2 782 C2.83489372 784.49947933 3.66823129 786.999479 4.5 789.5 C4.91507812 790.74394531 5.33015625 791.98789062 5.7578125 793.26953125 C6.56824686 795.70338287 7.37568022 798.13823643 8.1796875 800.57421875 C10.03195029 806.17337913 11.90760327 811.75923267 13.87109375 817.3203125 C14.19223145 818.23014893 14.51336914 819.13998535 14.84423828 820.07739258 C15.48158897 821.87775561 16.12181379 823.67710417 16.76513672 825.4753418 C17.05533691 826.29429932 17.34553711 827.11325684 17.64453125 827.95703125 C17.90596924 828.68897705 18.16740723 829.42092285 18.43676758 830.17504883 C19 832 19 832 19 834 C19.66 834.33 20.32 834.66 21 835 C21.52514648 836.78515625 21.52514648 836.78515625 21.93359375 839.0625 C22.86048874 843.62235584 24.29670601 847.70710255 26.0625 852 C29.55934708 860.72608577 32.75217968 869.54760151 35.89086914 878.40820312 C37.77075961 883.68986011 39.72309381 888.87696108 42 894 C42.59678687 895.39013449 43.1831696 896.78488396 43.75 898.1875 C44.01296875 898.82042969 44.2759375 899.45335937 44.546875 900.10546875 C45.09220851 902.38552697 44.72289836 903.79711378 44 906 C36.50853338 895.7077723 30.42016729 884.97810841 24.8125 873.5625 C22.69979741 869.40994664 20.38677546 865.39835538 18.04223633 861.37353516 C15.2448225 856.5266434 12.74983678 851.56415394 10.2902832 846.53930664 C6.8173412 839.50687219 3.02759948 832.6520564 -0.78808594 825.80078125 C-3.4251607 821.03208559 -5.85732425 816.26119279 -8.01660156 811.25805664 C-9.82573367 807.10396953 -11.79906008 803.02639888 -13.75 798.9375 C-14.18973145 798.01267822 -14.62946289 797.08785645 -15.08251953 796.13500977 C-17.30915817 791.46988304 -19.57786937 786.83540765 -21.94702148 782.24121094 C-27.24072003 771.95185423 -31.66681024 761.28896125 -36.16796875 750.63671875 C-38.33501459 745.5174602 -40.59626846 740.45045146 -42.91235352 735.3972168 C-48.42171892 723.25435285 -52.69387856 710.60500195 -57 698 C-57.23605957 697.31373535 -57.47211914 696.6274707 -57.71533203 695.92041016 C-63.01263409 680.49625694 -67.40569869 664.85585983 -71.46533203 649.06689453 C-71.91399511 647.33247368 -72.3754153 645.60135976 -72.83984375 643.87109375 C-74.73347188 636.67530684 -76.12134953 629.4008534 -77.46704102 622.08642578 C-78.38224781 617.1309158 -79.38454478 612.20671311 -80.46875 607.28515625 C-82.08029187 599.83278737 -83.32082134 592.34378498 -84.5 584.8125 C-84.71767631 583.43518026 -84.93561586 582.05790209 -85.15380859 580.68066406 C-85.47731922 578.63725334 -85.80038428 576.59377955 -86.12167358 574.55001831 C-86.69032536 570.93502987 -87.27408903 567.32329318 -87.8828125 563.71484375 C-89.61134221 553.38002078 -90.8436551 543.02310462 -91.91064453 532.59863281 C-92.43341086 527.59405617 -93.01682747 522.65653413 -93.97265625 517.71484375 C-95.22801155 511.13238973 -95.92125673 504.49696137 -96.63189697 497.83908081 C-96.88086133 495.50761052 -97.13489981 493.17673874 -97.39013672 490.84594727 C-98.02256004 485.06143014 -98.64653473 479.27600791 -99.27075195 473.49060059 C-99.80046807 468.58414693 -100.33346682 463.67807052 -100.8706665 458.77243042 C-101.11864564 456.49583672 -101.36192775 454.21877446 -101.60498047 451.94165039 C-102.35200135 445.05322593 -103.26308841 438.25789737 -104.58056641 431.45092773 C-105.24209057 427.5853625 -105.45652699 423.72598759 -105.625 419.8125 C-105.66367188 419.05130859 -105.70234375 418.29011719 -105.7421875 417.50585938 C-105.83451335 415.6708832 -105.91823198 413.83547695 -106 412 C-104.73461631 411.15841464 -103.46246221 410.32700252 -102.1875 409.5 C-101.47980469 409.0359375 -100.77210937 408.571875 -100.04296875 408.09375 C-98 407 -98 407 -95 407 C-95 406.34 -95 405.68 -95 405 C-94.16855469 404.59007812 -93.33710937 404.18015625 -92.48046875 403.7578125 C-91.39378906 403.21898437 -90.30710937 402.68015625 -89.1875 402.125 C-88.10855469 401.59132813 -87.02960938 401.05765625 -85.91796875 400.5078125 C-82.92161735 399.02778861 -82.92161735 399.02778861 -80 397 C-79.01 397 -78.02 397 -77 397 C-77 396.34 -77 395.68 -77 395 C-76.24976562 394.63648438 -75.49953125 394.27296875 -74.7265625 393.8984375 C-69.70392656 391.43139969 -64.76729317 388.93491339 -60 386 C-56.45406403 383.81919274 -52.86398418 381.8931455 -49.125 380.0625 C-42.89722206 377.0043584 -36.95763201 373.54988436 -31 370 C-25.07095534 366.48976958 -19.18235571 363.02456926 -12.98046875 360.01953125 C-9.76031707 358.36182003 -6.70337148 356.438431 -3.609375 354.55859375 C2.12299206 351.13462001 8.02980184 348.02367965 13.94921875 344.9375 C21.7613458 340.85535818 29.41874782 336.63161717 36.94360352 332.03955078 C41.2065587 329.44601676 45.4892528 327.12771095 50 325 C51.33474775 324.3361697 52.66841185 323.67014567 54 323 C53.01 322.319375 53.01 322.319375 52 321.625 C51.34 321.08875 50.68 320.5525 50 320 C50 319.34 50 318.68 50 318 C49.01 318 48.02 318 47 318 C47 317.34 47 316.68 47 316 C46.27941406 315.74476563 45.55882812 315.48953125 44.81640625 315.2265625 C41.81435745 313.91915151 39.54532978 312.34955588 36.9375 310.375 C26.43034868 302.44801877 26.43034868 302.44801877 15 296 C15 295.34 15 294.68 15 294 C13.9790625 293.6596875 13.9790625 293.6596875 12.9375 293.3125 C9.94562131 291.97570314 7.62855388 290.39126035 5.0390625 288.4140625 C2.76230876 286.83516432 0.38431073 285.48784719 -2.02832031 284.12890625 C-5.63189212 282.06564275 -9.15197295 279.86457663 -12.6875 277.6875 C-22.5193279 271.66493007 -32.30238833 265.73055845 -42.671875 260.66796875 C-45.16861586 259.41666787 -47.62546426 258.13357577 -50.078125 256.80078125 C-57.56556547 252.73472036 -64.91511468 249.02698146 -72.9453125 246.11328125 C-76.06829923 244.97510834 -79.12434503 243.72745457 -82.1875 242.4375 C-90.06495915 239.12668383 -97.98699572 235.96777936 -106 233 C-105.65973829 224.32332634 -104.05219039 216.2134131 -102.09375 207.796875 C-101.01226639 203.13439497 -100.09293977 198.4492276 -99.1875 193.75 C-95.30324774 173.98711407 -90.79738351 154.32177692 -84.66894531 135.12744141 C-84.03998764 133.12717238 -83.44674108 131.12052404 -82.8671875 129.10546875 C-77.52907522 110.98201762 -70.37401216 93.40452127 -61 77 C-59.91442637 74.95952364 -58.83092272 72.91794394 -57.75 70.875 C-55.78641399 67.26885022 -53.65473647 64.14635434 -51 61 C-50.67 60.01 -50.34 59.02 -50 58 C-49.01868677 56.98165608 -48.01629898 55.98343092 -47 55 C-46.02292826 53.68297428 -45.07536845 52.3437337 -44.15234375 50.98828125 C-43.62962891 50.23095703 -43.10691406 49.47363281 -42.56835938 48.69335938 C-41.47440698 47.09631989 -40.38329208 45.4973333 -39.29492188 43.89648438 C-38.5127832 42.76629883 -38.5127832 42.76629883 -37.71484375 41.61328125 C-37.24167725 40.92016846 -36.76851074 40.22705566 -36.28100586 39.51293945 C-35.64690796 38.76403442 -35.64690796 38.76403442 -35 38 C-34.34 38 -33.68 38 -33 38 C-32.72800781 37.42121094 -32.45601563 36.84242187 -32.17578125 36.24609375 C-29.10930961 30.38821604 -24.69860706 25.58933713 -20 21 C-15.81736046 16.45973701 -11.70411109 11.86584638 -7.75 7.125 C-5.4205942 4.37265739 -2.91456819 2.14306484 0 0 Z " fill="#E50101" transform="translate(106,0)"></path>
<path d="M0 0 C1.9421212 0.00477356 1.9421212 0.00477356 3.92347717 0.00964355 C6.65629078 0.0220847 9.38792439 0.0556583 12.12036133 0.10205078 C14.88207696 0.14613792 17.63970332 0.15333291 20.40161133 0.12451172 C37.18905901 -0.04380311 50.57715744 0.83188095 64.34378052 11.17358398 C66.52001251 12.78377626 68.76643785 14.24032943 71.04272461 15.70507812 C79.92325963 21.69886735 79.92325963 21.69886735 80.7800293 25.65042114 C80.97832844 28.13932023 80.98824022 30.57006665 80.94140625 33.06640625 C80.94144653 33.98852402 80.94148682 34.91064178 80.94152832 35.86070251 C80.93617016 37.81841825 80.91857477 39.77613322 80.88964844 41.73364258 C80.84852316 44.65712357 80.84852582 47.57823745 80.85546875 50.50195312 C80.80092941 66.67689895 78.95174761 82.49372358 75.09765625 98.21875 C74.89221191 99.07025635 74.68676758 99.9217627 74.47509766 100.79907227 C70.9517506 114.78792163 65.6666703 127.85611723 58.60546875 140.4140625 C57.8174169 141.81885059 57.03966355 143.22952108 56.27734375 144.6484375 C54.32186403 148.23604989 52.26099011 150.82860243 49.34765625 153.65625 C48.41909865 154.91842111 47.50378131 156.19037896 46.59765625 157.46875 C43.40977074 161.80329842 39.72036643 165.50474717 35.34765625 168.65625 C34.68765625 168.65625 34.02765625 168.65625 33.34765625 168.65625 C33.01765625 169.64625 32.68765625 170.63625 32.34765625 171.65625 C30.14664425 173.66662317 27.63249747 175.24708642 25.16015625 176.90625 C24.16918945 177.61394531 24.16918945 177.61394531 23.15820312 178.3359375 C19.96260085 180.49367882 18.11978666 181.65337963 14.1953125 181.66796875 C11.04681307 180.54936607 8.68003165 179.17407668 5.97265625 177.21875 C5.09867187 176.60128906 4.2246875 175.98382813 3.32421875 175.34765625 C2.67195313 174.78949219 2.0196875 174.23132813 1.34765625 173.65625 C1.34765625 172.99625 1.34765625 172.33625 1.34765625 171.65625 C0.80496094 171.42808594 0.26226562 171.19992187 -0.296875 170.96484375 C-24.70097527 157.40701026 -36.45960932 126.28799733 -43.77734375 101.15625 C-45.90130718 93.69173763 -47.75168625 86.37890899 -48.65234375 78.65625 C-48.73967773 78.0055957 -48.82701172 77.35494141 -48.91699219 76.68457031 C-50.39415207 65.5984108 -50.85600833 54.58782862 -50.90234375 43.40625 C-50.91152832 42.16883057 -50.92071289 40.93141113 -50.93017578 39.65649414 C-50.87638671 23.8887655 -50.87638671 23.8887655 -47.11425781 20.11230469 C-45.19101275 18.64549102 -43.23103542 17.39180879 -41.15234375 16.15625 C-40.11787109 15.49496094 -40.11787109 15.49496094 -39.0625 14.8203125 C-34.02161782 11.65625 -34.02161782 11.65625 -31.65234375 11.65625 C-31.65234375 10.99625 -31.65234375 10.33625 -31.65234375 9.65625 C-29.78181269 8.72098447 -27.90966721 7.78885682 -26.03114319 6.86975098 C-24.49129788 6.08422709 -22.97513878 5.24961595 -21.4931488 4.35974121 C-14.34866969 0.25805485 -8.1236183 -0.08749135 0 0 Z " fill="#E50101" transform="translate(264.65234375,329.34375)"></path>
<path d="M0 0 C1.61553893 4.02887486 0.27201418 6.78482202 -1.125 10.75 C-8.19476342 32.18774767 -10.69741943 54.64227885 -13 77 C-13.12905983 78.19419807 -13.12905983 78.19419807 -13.26072693 79.41252136 C-14.02809225 87.0080424 -14.21484814 94.56889699 -14.31640625 102.19921875 C-14.33718735 103.51541702 -14.35796844 104.8316153 -14.37937927 106.18769836 C-14.43396857 109.64809526 -14.48364989 113.10854494 -14.53222656 116.56903076 C-14.58290973 120.11572844 -14.63834868 123.66235165 -14.69335938 127.20898438 C-14.80016572 134.13925812 -14.90177506 141.06959945 -15 148 C-14.01 148.33 -13.02 148.66 -12 149 C-12 149.66 -12 150.32 -12 151 C-11.18402344 151.32291016 -11.18402344 151.32291016 -10.3515625 151.65234375 C-7.19070887 153.46379641 -4.87236204 155.95496023 -2.375 158.5625 C0.96402902 162.22714016 0.96402902 162.22714016 5 165 C5 165.66 5 166.32 5 167 C5.8353125 167.3403125 5.8353125 167.3403125 6.6875 167.6875 C9.03674975 169.02085797 10.57432604 170.59050817 12.44995117 172.50415039 C15.55600605 175.50159853 18.96204576 178.15809691 22.3125 180.875 C27.35405395 184.97492323 32.32684869 189.12734884 37.20239258 193.42382812 C42.49366586 198.06330393 47.97600894 202.48930045 53.59375 206.7265625 C54.49057495 207.40464966 54.49057495 207.40464966 55.40551758 208.09643555 C56.57800931 208.9788163 57.75484243 209.85546258 58.9362793 210.72583008 C60.32677002 211.77107511 61.66869264 212.88034723 63 214 C63 214.66 63 215.32 63 216 C64.65 216.66 66.3 217.32 68 218 C68 218.66 68 219.32 68 220 C68.804375 220.3403125 68.804375 220.3403125 69.625 220.6875 C72.78500863 222.43382056 75.2676983 224.6402849 78 227 C77.9140625 228.7109375 77.9140625 228.7109375 77 231 C74.81736659 232.70424801 72.71306964 234.16693646 70.375 235.625 C69.00109748 236.51009916 67.62740543 237.39552508 66.25390625 238.28125 C65.19453857 238.95607422 65.19453857 238.95607422 64.11376953 239.64453125 C60.81613478 241.75916143 57.56623874 243.94370371 54.3125 246.125 C53.07567478 246.94814803 51.83869745 247.77106754 50.6015625 248.59375 C48.21269612 250.18546905 45.83338915 251.79017461 43.4609375 253.40625 C42.38070312 254.1384375 41.30046875 254.870625 40.1875 255.625 C39.23230469 256.27726562 38.27710938 256.92953125 37.29296875 257.6015625 C35 259 35 259 33 259 C33 259.66 33 260.32 33 261 C31.515 261.804375 31.515 261.804375 30 262.625 C26.32151513 264.70349348 23.07898956 267.17617644 19.796875 269.828125 C18 271 18 271 15 271 C15 271.66 15 272.32 15 273 C10.61538462 276 10.61538462 276 8 276 C8 276.66 8 277.32 8 278 C6.54787109 278.79083984 6.54787109 278.79083984 5.06640625 279.59765625 C0.46179735 282.23068167 -3.78194717 285.31366036 -8.0625 288.4375 C-8.83916016 288.99759766 -9.61582031 289.55769531 -10.41601562 290.13476562 C-13.85210712 292.62818681 -17.21564135 295.13922302 -20.43359375 297.91015625 C-23 300 -23 300 -25 300 C-26.09058824 303.53816614 -26.13320937 306.82669131 -26.14526367 310.51708984 C-26.1485713 311.16643242 -26.15187893 311.81577499 -26.15528679 312.48479462 C-26.16468322 314.64352588 -26.16659943 316.8021872 -26.16796875 318.9609375 C-26.17195636 320.48983818 -26.17614648 322.01873834 -26.18052673 323.54763794 C-26.19194477 328.49010258 -26.1901859 333.43252632 -26.1875 338.375 C-26.18755597 340.06583659 -26.18761701 341.75667318 -26.18768311 343.44750977 C-26.181755 363.81212175 -26.04818923 384.15267055 -25.125 404.5 C-25.06619156 405.83886261 -25.06619156 405.83886261 -25.00619507 407.20477295 C-24.50492748 418.21926193 -23.51672108 429.11784109 -22.22113037 440.06524658 C-21.62530937 445.27831029 -21.22111791 450.51156385 -20.7890625 455.74023438 C-16.3354301 507.14897387 -3.40840484 558.52502373 10.99023438 607.97998047 C12.4553114 613.02602055 13.81508056 618.0833859 15.0625 623.1875 C16.43048518 628.77815019 17.88877103 634.3317416 19.4375 639.875 C19.64697266 640.62475098 19.85644531 641.37450195 20.07226562 642.14697266 C20.92538403 645.19093566 21.78256372 648.2337098 22.64550781 651.27490234 C25.01650367 659.63095374 27.31864967 667.99768819 29.375 676.4375 C29.64485718 677.51173218 29.64485718 677.51173218 29.92016602 678.60766602 C30.70889579 681.92806136 31.10133464 683.69599607 30 687 C20.86998453 672.03107434 12.33161329 656.9994282 4.75 641.1875 C4.33733887 640.32777588 3.92467773 639.46805176 3.49951172 638.58227539 C0.76357317 632.80547944 -1.66846625 626.94985268 -4 621 C-4.8485261 618.93517303 -5.70167496 616.87222988 -6.5625 614.8125 C-6.98660156 613.79542969 -7.41070312 612.77835938 -7.84765625 611.73046875 C-8.71041555 609.6861679 -9.59881914 607.65265693 -10.5 605.625 C-12.39508027 601.04522269 -14.03858127 596.39353174 -15.68359375 591.71875 C-16.51186768 589.37893759 -17.35599398 587.04461679 -18.22265625 584.71875 C-21.73039328 575.24447634 -24.48555728 565.61719795 -27.18652344 555.88769531 C-28.0092695 552.96709495 -28.86413969 550.05754865 -29.7265625 547.1484375 C-34.14055191 532.0991953 -37.4048031 516.98944127 -40.31274414 501.58886719 C-41.01917845 497.89984965 -41.76290885 494.21969408 -42.51171875 490.5390625 C-44.01537787 483.04988875 -45.31825488 475.53612187 -46.5625 468 C-46.87477539 466.14375 -46.87477539 466.14375 -47.19335938 464.25 C-48.42851617 456.81582741 -49.51602063 449.37522394 -50.48852539 441.90234375 C-51.03216053 437.75462819 -51.6035088 433.61148772 -52.18359375 429.46875 C-52.28496643 428.74361206 -52.38633911 428.01847412 -52.49078369 427.2713623 C-52.69929808 425.77993767 -52.90788667 424.28852341 -53.11654663 422.79711914 C-58.91020491 381.33089819 -58.91020491 381.33089819 -60.71435547 361.99365234 C-61.04664025 358.51119428 -61.40056999 355.03116533 -61.75390625 351.55078125 C-63.06894459 338.46925375 -64.25805997 325.38211243 -64.9375 312.25 C-65.00718994 311.1676709 -65.07687988 310.0853418 -65.14868164 308.97021484 C-65.45938525 301.68430366 -65.45938525 301.68430366 -63.30859375 298.48046875 C-62.54675781 297.99191406 -61.78492187 297.50335938 -61 297 C-60.26007813 296.51660156 -59.52015625 296.03320312 -58.7578125 295.53515625 C-57.88898438 295.04917969 -57.02015625 294.56320312 -56.125 294.0625 C-54.54525391 293.16337891 -54.54525391 293.16337891 -52.93359375 292.24609375 C-52.0206958 291.72764893 -52.0206958 291.72764893 -51.08935547 291.19873047 C-46.76374029 288.71698584 -42.47907891 286.16498109 -38.1875 283.625 C-37.22473145 283.05595947 -36.26196289 282.48691895 -35.27001953 281.90063477 C-29.42039532 278.44088666 -23.58438629 274.95969926 -17.76245117 271.45361328 C-11.23585927 267.52895246 -4.67247202 263.6667088 1.88671875 259.796875 C7.10307158 256.71742809 12.31083329 253.62502827 17.5 250.5 C23.81506951 246.69823497 30.15475827 242.9386699 36.5 239.1875 C37.43263672 238.63578125 38.36527344 238.0840625 39.32617188 237.515625 C44.19656541 234.63910376 49.08012559 231.7910826 54 229 C50.34162417 225.1906218 46.4949866 221.90541644 42.3125 218.6875 C41.07388299 217.72569265 39.83560424 216.76344955 38.59765625 215.80078125 C37.99066895 215.32979004 37.38368164 214.85879883 36.75830078 214.37353516 C33.43555203 211.77789722 30.16492018 209.11723657 26.890625 206.4609375 C25.06128277 204.95021561 25.06128277 204.95021561 23 204 C23 203.34 23 202.68 23 202 C21.35 201.34 19.7 200.68 18 200 C18 199.34 18 198.68 18 198 C17.46375 197.7525 16.9275 197.505 16.375 197.25 C13.4176018 195.69347463 10.70275949 193.96564327 8 192 C8 191.34 8 190.68 8 190 C6.35 189.34 4.7 188.68 3 188 C3 187.34 3 186.68 3 186 C1.9171875 185.62875 1.9171875 185.62875 0.8125 185.25 C-2.27606582 183.87730408 -4.51011418 182.27646704 -7 180 C-7 179.34 -7 178.68 -7 178 C-7.99 178 -8.98 178 -10 178 C-11.70556096 176.37315724 -13.36538728 174.69811566 -15 173 C-17.12701243 171.2560128 -19.26095409 169.55366334 -21.4375 167.875 C-22.03643066 167.40271973 -22.63536133 166.93043945 -23.25244141 166.44384766 C-26.45474806 163.92649965 -29.69142712 161.49406296 -33.02734375 159.15625 C-33.67195557 158.68977051 -34.31656738 158.22329102 -34.98071289 157.74267578 C-36.21404616 156.85220884 -37.46421265 155.98446363 -38.73217773 155.14404297 C-41.08623802 153.41667125 -42.80952262 151.90964243 -43.42211914 148.98413086 C-43.46737363 146.60529608 -43.29363239 144.36068814 -43 142 C-42.91524414 141.27167969 -42.83048828 140.54335937 -42.74316406 139.79296875 C-42.43274646 137.45813337 -42.06496184 135.13740587 -41.6875 132.8125 C-40.30489364 123.8156829 -39.351443 114.81138347 -38.5 105.75 C-37.47160111 95.03250963 -36.23529086 84.53624961 -34 74 C-33.85981445 73.31760254 -33.71962891 72.63520508 -33.57519531 71.93212891 C-29.12172153 50.47582311 -21.53324381 28.46801954 -8 11 C-6.51680305 8.96125931 -5.03768063 6.91954859 -3.5625 4.875 C-2.37590343 3.24934019 -1.18873828 1.62409438 0 0 Z " fill="#E50101" transform="translate(163,96)"></path>
<path d="M0 0 C0.99 0 1.98 0 3 0 C4.68359375 1.94140625 4.68359375 1.94140625 6.4375 4.5625 C7.05367188 5.48160156 7.66984375 6.40070313 8.3046875 7.34765625 C9.95300012 9.92646794 11.52444179 12.5124248 12.98828125 15.19921875 C13.71673911 16.49581748 14.49107184 17.76702158 15.29296875 19.01953125 C34.29100968 48.91725249 38.85963886 84.40171514 41.91040039 118.93847656 C42.53139941 125.82904988 43.33076026 132.61088585 44.56420898 139.42016602 C45.89352815 147.28958651 45.89352815 147.28958651 45 151 C43.18670417 153.36952154 41.60089339 154.3874461 39 156 C38.34 156 37.68 156 37 156 C37 156.66 37 157.32 37 158 C35.5390625 159.2890625 35.5390625 159.2890625 33.625 160.625 C32.99851562 161.07101562 32.37203125 161.51703125 31.7265625 161.9765625 C30 163 30 163 28 163 C28 163.66 28 164.32 28 165 C25.9102773 166.79539556 23.82157918 168.47061442 21.625 170.125 C21.02171875 170.59292969 20.4184375 171.06085938 19.796875 171.54296875 C15.26141126 175 15.26141126 175 13 175 C13 175.66 13 176.32 13 177 C11.3203125 178.5078125 11.3203125 178.5078125 9.125 180.125 C8.40570313 180.66382813 7.68640625 181.20265625 6.9453125 181.7578125 C5 183 5 183 3 183 C3 183.66 3 184.32 3 185 C1.26451831 186.44526736 -0.53975963 187.8087222 -2.375 189.125 C-3.37273437 189.84945312 -4.37046875 190.57390625 -5.3984375 191.3203125 C-8 193 -8 193 -10 193 C-10.33 193.99 -10.66 194.98 -11 196 C-12.94901027 197.66196899 -14.87352373 199.18446502 -16.9375 200.6875 C-17.48857422 201.10322266 -18.03964844 201.51894531 -18.60742188 201.94726562 C-22.73287408 205 -22.73287408 205 -25 205 C-25 205.66 -25 206.32 -25 207 C-26.828125 208.3671875 -26.828125 208.3671875 -29.25 209.875 C-32.58238734 212.02058065 -35.24017516 214.15114855 -38 217 C-40.03840163 218.58314493 -42.10906417 220.11339391 -44.1953125 221.6328125 C-46.1089274 223.01783581 -46.1089274 223.01783581 -48 225 C-50.125 225.625 -50.125 225.625 -52 226 C-51.83822754 227.91699034 -51.83822754 227.91699034 -51 230 C-49.03295574 231.57335254 -49.03295574 231.57335254 -46.50390625 232.84765625 C-45.56200439 233.36465088 -44.62010254 233.88164551 -43.6496582 234.41430664 C-42.630896 234.95821045 -41.61213379 235.50211426 -40.5625 236.0625 C-38.44131811 237.2266371 -36.3215395 238.39333456 -34.203125 239.5625 C-32.62047852 240.43261719 -32.62047852 240.43261719 -31.00585938 241.3203125 C-26.87429311 243.62904998 -22.83526615 246.07023348 -18.8125 248.5625 C-18.10673828 248.99812256 -17.40097656 249.43374512 -16.67382812 249.88256836 C-15.22562542 250.77655503 -13.7777123 251.67101096 -12.33007812 252.56591797 C-7.92320447 255.2781954 -3.49420233 257.95354768 0.9375 260.625 C1.79690186 261.14650635 2.65630371 261.6680127 3.54174805 262.20532227 C4.34136963 262.68670654 5.14099121 263.16809082 5.96484375 263.6640625 C6.6724585 264.09154785 7.38007324 264.5190332 8.10913086 264.95947266 C10.12049892 266.14034621 10.12049892 266.14034621 13 267 C13 267.66 13 268.32 13 269 C14.65 269.33 16.3 269.66 18 270 C18 270.66 18 271.32 18 272 C18.56968506 272.1131958 19.13937012 272.2263916 19.72631836 272.34301758 C22.25945781 273.07497057 24.13411782 274.13133488 26.37890625 275.51171875 C27.21252686 276.01952881 28.04614746 276.52733887 28.9050293 277.05053711 C29.78199463 277.59073486 30.65895996 278.13093262 31.5625 278.6875 C38.61835175 282.98041544 45.70624096 287.12215144 53 291 C54.7311786 291.95469408 56.46044779 292.91286134 58.1875 293.875 C59.29158203 294.48988281 59.29158203 294.48988281 60.41796875 295.1171875 C61.20107422 295.55417969 61.20107422 295.55417969 62 296 C62 296.66 62 297.32 62 298 C63.32 298.33 64.64 298.66 66 299 C67.23535134 307.02540301 66.77763824 314.67273374 66.1875 322.75 C66.10435547 324.03132813 66.02121094 325.31265625 65.93554688 326.6328125 C65.44501193 333.69365123 64.64081721 340.5972661 63.49731445 347.57910156 C62.51280649 354.35127907 62.04763378 361.18097884 61.5 368 C60.77777863 376.99294931 59.94433207 385.87351333 58.48632812 394.78369141 C57.40031739 401.96597323 56.82805306 409.21770799 56.14453125 416.44726562 C55.54047466 422.58201243 54.77634366 428.54980404 53.47753906 434.57495117 C52.58346084 439.11527785 52.14577768 443.71726954 51.625 448.3125 C50.39127772 458.61167358 48.65203144 468.71116443 46.61083984 478.87597656 C45.8935022 482.54466261 45.21980741 486.22071961 44.55078125 489.8984375 C44.29218268 491.31121789 44.03347417 492.72397817 43.7746582 494.13671875 C43.39267552 496.2219846 43.0121292 498.30743514 42.63754272 500.39404297 C40.89202696 510.0997758 38.62411362 519.505094 36 529 C35.33257874 531.59948616 34.69759693 534.20479786 34.0625 536.8125 C32.07152538 544.87875706 29.85921693 552.87788003 27.59814453 560.87207031 C27.03415874 562.87847855 26.48192854 564.88770467 25.93359375 566.8984375 C24.30119884 572.80066536 22.51256121 578.46137067 20.1328125 584.1015625 C18.29875199 588.79422767 16.79513836 593.60066544 15.28173828 598.40527344 C13.83027647 602.90056793 12.07935703 607.01847401 9.90136719 611.20898438 C8.76150974 613.47387989 7.92737248 615.78420338 7.125 618.1875 C5.07142768 623.98348982 2.56551093 629.49600259 -0.07568359 635.04541016 C-1.12179573 637.25755325 -2.14894896 639.47806303 -3.17578125 641.69921875 C-6.67551726 649.23180733 -10.14636926 656.63571462 -14.59765625 663.6640625 C-16.83374588 667.38880234 -18.65263194 671.31305458 -20.5078125 675.23828125 C-22.06916801 678.12801514 -23.90750208 680.47694695 -26 683 C-26.70885894 684.31138904 -27.39456452 685.63777017 -28 687 C-28.66 687 -29.32 687 -30 687 C-28.56097233 680.35467883 -26.96547089 673.76665689 -25.25 667.1875 C-24.9912207 666.19355225 -24.73244141 665.19960449 -24.46582031 664.17553711 C-22.47463858 656.6149312 -20.30960782 649.11793911 -18.00488281 641.6472168 C-16.7124078 637.4493471 -15.53416584 633.25340123 -14.49609375 628.9855957 C-13.62230883 625.48830595 -12.61048683 622.02961135 -11.625 618.5625 C-9.90733812 612.46799996 -8.3419875 606.36148083 -6.9375 600.1875 C-5.80624119 595.21913359 -4.55122196 590.35888591 -3 585.5 C-0.80672361 578.59713011 0.79754271 571.59558831 2.40966797 564.54199219 C3.30005537 560.70795016 4.23488945 556.8849188 5.16479492 553.06030273 C12.22226007 523.96749144 18.19101893 494.71005236 22 465 C22.08846191 464.3208252 22.17692383 463.64165039 22.26806641 462.94189453 C22.94544993 457.63725809 23.48967468 452.32308561 24 447 C24.11875488 445.76926758 24.23750977 444.53853516 24.35986328 443.27050781 C28.89809222 395.59504978 28.64432661 347.8254145 27 300 C26.21625 299.690625 25.4325 299.38125 24.625 299.0625 C22 298 22 298 20 297 C20 296.34 20 295.68 20 295 C19.32582031 294.78214844 18.65164063 294.56429688 17.95703125 294.33984375 C14.08787689 292.58671304 11.02760401 290.16113033 7.6875 287.5625 C2.04977996 283.25496228 -3.64762343 279.07422658 -9.5 275.0625 C-10.44999878 274.40906616 -10.44999878 274.40906616 -11.41918945 273.74243164 C-15.36946254 271.04866341 -19.38716305 268.52757465 -23.51367188 266.11108398 C-24.00416016 265.74442627 -24.49464844 265.37776855 -25 265 C-25 264.34 -25 263.68 -25 263 C-25.73476563 262.72800781 -26.46953125 262.45601563 -27.2265625 262.17578125 C-29.86618816 261.05672868 -32.01475482 259.80218037 -34.375 258.1875 C-35.15359375 257.65769531 -35.9321875 257.12789063 -36.734375 256.58203125 C-38.71376359 255.19987198 -40.67283047 253.79515936 -42.625 252.375 C-45.33716772 250.41379863 -48.15025635 248.77040521 -51.078125 247.14453125 C-54.20647908 245.28150738 -57.12386458 243.12435826 -60.08984375 241.015625 C-65.62131536 237.18443124 -71.32160382 233.60831803 -77 230 C-76.34 228.35 -75.68 226.7 -75 225 C-74.01 225 -73.02 225 -72 225 C-72 224.34 -72 223.68 -72 223 C-70.7934375 222.5978125 -70.7934375 222.5978125 -69.5625 222.1875 C-68.2940625 221.5996875 -68.2940625 221.5996875 -67 221 C-66.67 220.01 -66.34 219.02 -66 218 C-62.55555556 215 -62.55555556 215 -60 215 C-60 214.34 -60 213.68 -60 213 C-58.7934375 212.5978125 -58.7934375 212.5978125 -57.5625 212.1875 C-56.716875 211.795625 -55.87125 211.40375 -55 211 C-54.67 210.01 -54.34 209.02 -54 208 C-52.05098973 206.33803101 -50.12647627 204.81553498 -48.0625 203.3125 C-47.51142578 202.89677734 -46.96035156 202.48105469 -46.39257812 202.05273438 C-42.26712592 199 -42.26712592 199 -40 199 C-40 198.34 -40 197.68 -40 197 C-37.78724901 195.08307133 -35.56850904 193.28028372 -33.25 191.5 C-32.61578125 191.00113281 -31.9815625 190.50226563 -31.328125 189.98828125 C-28.30916092 187.64229458 -25.47068158 185.63750822 -22 184 C-22 183.34 -22 182.68 -22 182 C-21.34 182 -20.68 182 -20 182 C-20 181.34 -20 180.68 -20 180 C-18.30725716 178.43567213 -16.54430148 176.94671428 -14.75 175.5 C-13.28820312 174.30890625 -13.28820312 174.30890625 -11.796875 173.09375 C-9.55105238 171.41251966 -7.5534197 170.11864101 -5 169 C-5 168.34 -5 167.68 -5 167 C-4.195625 166.731875 -3.39125 166.46375 -2.5625 166.1875 C-1.716875 165.795625 -0.87125 165.40375 0 165 C0.33 164.01 0.66 163.02 1 162 C1.66 162 2.32 162 3 162 C3 161.34 3 160.68 3 160 C3.66 160 4.32 160 5 160 C5 159.34 5 158.68 5 158 C6.375 156.375 6.375 156.375 8 155 C8.66 155 9.32 155 10 155 C10 154.34 10 153.68 10 153 C11.375 151.375 11.375 151.375 13 150 C13.66 150 14.32 150 15 150 C15.95989824 147.12030529 16.1316633 145.29100802 16.14526367 142.29858398 C16.15154785 141.34075012 16.15783203 140.38291626 16.16430664 139.39605713 C16.16611938 137.83682526 16.16611938 137.83682526 16.16796875 136.24609375 C16.1721582 135.1659198 16.17634766 134.08574585 16.18066406 132.97283936 C16.19047659 129.46102292 16.19044989 125.94932792 16.1875 122.4375 C16.18722809 121.24806793 16.18695618 120.05863586 16.18667603 118.8331604 C16.16899578 102.13212115 15.95845767 85.60366699 14 69 C13.89284668 68.02514648 13.78569336 67.05029297 13.67529297 66.04589844 C11.78639992 49.02661462 8.76956576 32.4485227 3.87890625 16.03125 C2.72493227 12.05132197 1.85019321 8.05476761 1 4 C0.67214063 2.6653101 0.34029127 1.33157453 0 0 Z " fill="#E50101" transform="translate(395,96)"></path>
<path d="M0 0 C1.01964844 0.02964844 2.03929687 0.05929687 3.08984375 0.08984375 C6.50393936 1.20693942 6.58209085 1.63030508 8.25292969 4.58056641 C10.42307402 7.74386488 10.74110183 7.99325974 14.7512207 8.85717773 C16.16405909 8.85607975 17.57722818 8.81710613 18.98828125 8.74609375 C19.73587204 8.73618912 20.48346283 8.72628448 21.25370789 8.71607971 C23.62951247 8.67705062 26.00060563 8.58927742 28.375 8.5 C29.99016738 8.46487007 31.60540759 8.43293397 33.22070312 8.40429688 C37.16976978 8.32732988 41.11533777 8.20664952 45.0625 8.0625 C44.5675 4.1025 44.5675 4.1025 44.0625 0.0625 C49.60300113 0.63075653 54.09965966 2.69136517 59.0625 5.0625 C59.0625 5.7225 59.0625 6.3825 59.0625 7.0625 C60.1453125 6.97742188 60.1453125 6.97742188 61.25 6.890625 C68.70860409 7.34642858 76.55119604 14.27970372 81.375 19.625 C83.0625 22.0625 83.0625 22.0625 83.0625 25.0625 C82.216875 24.8975 81.37125 24.7325 80.5 24.5625 C75.89399351 25.23246458 75.04775621 27.13012278 72.234375 30.640625 C69.65906247 33.51237638 66.80246712 35.85302449 63.75 38.1875 C62.72261719 38.97382813 61.69523437 39.76015625 60.63671875 40.5703125 C59.44993538 41.40763265 58.25810844 42.23783022 57.0625 43.0625 C56.01573845 43.81879196 56.01573845 43.81879196 54.9478302 44.59036255 C48.25315614 49.06941612 43.02083823 49.95104061 35.0625 49.859375 C33.94617188 49.86511536 32.82984375 49.87085571 31.6796875 49.87677002 C29.33331253 49.88082992 26.98686822 49.86992025 24.640625 49.84472656 C21.07136115 49.81257981 17.50662484 49.84448765 13.9375 49.8828125 C11.64582345 49.87884725 9.35414969 49.87115907 7.0625 49.859375 C6.00804687 49.87152039 4.95359375 49.88366577 3.8671875 49.8961792 C-3.86845746 49.75104312 -8.70110175 47.54268942 -14.9375 43.0625 C-15.82793503 42.46749695 -15.82793503 42.46749695 -16.73635864 41.86047363 C-18.20084149 40.8770978 -19.63341906 39.84664974 -21.0625 38.8125 C-21.99320313 38.14734375 -22.92390625 37.4821875 -23.8828125 36.796875 C-24.89988281 35.93835938 -24.89988281 35.93835938 -25.9375 35.0625 C-25.9375 34.4025 -25.9375 33.7425 -25.9375 33.0625 C-26.5975 33.0625 -27.2575 33.0625 -27.9375 33.0625 C-27.9375 32.4025 -27.9375 31.7425 -27.9375 31.0625 C-28.9275 30.7325 -29.9175 30.4025 -30.9375 30.0625 C-30.9375 29.4025 -30.9375 28.7425 -30.9375 28.0625 C-31.5975 28.0625 -32.2575 28.0625 -32.9375 28.0625 C-34.5625 26.0625 -34.5625 26.0625 -35.9375 24.0625 C-34.48847031 20.74830902 -32.6694786 18.49657408 -30.125 15.9375 C-29.12533203 14.91269531 -29.12533203 14.91269531 -28.10546875 13.8671875 C-25.80614715 11.95315763 -23.75615249 11.01680817 -20.9375 10.0625 C-20.9375 9.4025 -20.9375 8.7425 -20.9375 8.0625 C-19.18798432 7.10328278 -17.43786756 6.14516183 -15.6875 5.1875 C-14.71296875 4.65382813 -13.7384375 4.12015625 -12.734375 3.5703125 C-11.81140625 3.07273437 -10.8884375 2.57515625 -9.9375 2.0625 C-9.28136719 1.66933594 -8.62523437 1.27617187 -7.94921875 0.87109375 C-5.18726478 -0.23905085 -2.96335945 -0.15321278 0 0 Z " fill="#E50101" transform="translate(258.9375,274.9375)"></path>
<path d="" fill="#E50101" transform="translate(0,0)"></path>
<path d="" fill="#E50101" transform="translate(0,0)"></path>
<path d="" fill="#E50101" transform="translate(0,0)"></path>
</svg>